{"title":"The Hunger Games: Mockingjay - Part 2 (2015) BRRIP 1080P NO CINA","uid":13974102,"size":7483236646,"categoryP":"video","categoryS":"hd___movies","magnet":"?xt=urn:btih:6c6ad2d608c2e172f9d1c4b05b251f7088d85b8a&amp;dn=The+Hunger+Games%3A+Mockingjay+-+Part+2+%282015%29+BRRIP+1080P+NO+CINA&amp;tr=udp%3A%2F%2Ftracker.leechers-paradise.org%3A6969&amp;tr=udp%3A%2F%2Fzer0day.ch%3A1337&amp;tr=udp%3A%2F%2Fopen.demonii.com%3A1337&amp;tr=udp%3A%2F%2Ftracker.coppersurfer.tk%3A6969&amp;tr=udp%3A%2F%2Fexodus.desync.com%3A6969","seeders":1,"leechers":1,"uploader":"jmanwf","files":5,"time":1458638981,"description":"As the war of Panem escalates to the destruction of other districts, Katniss Everdeen, the reluctant leader of the rebellion, must bring together an army against President Snow, while all she holds dear hangs in the balance.\r\n\r\nVideo\r\nID : 1\r\nFormat : AVC\r\nFormat/Info : Advanced Video Codec\r\nFormat profile :   \r\nFormat settings, CABAC : Yes\r\nFormat settings, ReFrames : 3 frames\r\nCodec ID : V_MPEG4/ISO/AVC\r\nDuration : 2h 16mn\r\nBit rate mode : Variable\r\nBit rate : 6 291 Kbps\r\nMaximum bit rate : 30.0 Mbps\r\nWidth : 1 920 pixels\r\nHeight : 1 080 pixels\r\nDisplay aspect ratio : 16:9\r\nFrame rate mode : Constant\r\nFrame rate : 23.976 fps\r\nColor space : YUV\r\nChroma subsampling : 4:2:0\r\nBit depth : 8 bits\r\nScan type : Progressive\r\nBits/(Pixel*Frame) : 0.127\r\nStream size : 6.02 GiB (87%)\r\nLanguage : English\r\nDefault : Yes\r\nForced : No\r\n\r\nAudio #1\r\nID : 2\r\nFormat : AC-3\r\nFormat/Info : Audio Coding 3\r\nMode extension : CM (complete main)\r\nFormat settings, Endianness : Big\r\nCodec ID : A_AC3\r\nDuration : 2h 16mn\r\nBit rate mode : Constant\r\nBit rate : 640 Kbps\r\nChannel(s) : 6 channels\r\nChannel positions : Front: L C R, Side: L R, LFE\r\nSampling rate : 48.0 KHz\r\nCompression mode : Lossy\r\nDelay relative to video : -125ms\r\nStream size : 627 MiB (9%)\r\nLanguage : English\r\nDefault : Yes\r\nForced : No\r\n\r\nAudio #2\r\nID : 3\r\nFormat : AC-3\r\nFormat/Info : Audio Coding 3\r\nMode extension : CM (complete main)\r\nFormat settings, Endianness : Big\r\nCodec ID : A_AC3\r\nDuration : 2h 16mn\r\nBit rate mode : Constant\r\nBit rate : 192 Kbps\r\nChannel(s) : 2 channels\r\nChannel positions : Front: L R\r\nSampling rate : 48.0 KHz\r\nCompression mode : Lossy\r\nDelay relative to video : -125ms\r\nStream size : 188 MiB (3%)\r\nLanguage : English\r\nDefault : No\r\nForced : No\r\n \nhttp://s13.postimg.org/z01629fxj/image.jpg\r\n \nhttp://s13.postimg.org/o1pwk2rc7/image.jpg\r\n \nhttp://s13.postimg.org/gzryxvnqf/image.jpg\r\n \nhttp://www.imdb.com/title/tt1951266/","torrent":{"xt":"urn:btih:6c6ad2d608c2e172f9d1c4b05b251f7088d85b8a","amp;dn":"The+Hunger+Games%3A+Mockingjay+-+Part+2+%282015%29+BRRIP+1080P+NO+CINA","amp;tr":["udp%3A%2F%2Ftracker.leechers-paradise.org%3A6969","udp%3A%2F%2Fzer0day.ch%3A1337","udp%3A%2F%2Fopen.demonii.com%3A1337","udp%3A%2F%2Ftracker.coppersurfer.tk%3A6969","udp%3A%2F%2Fexodus.desync.com%3A6969"],"infoHash":"6c6ad2d608c2e172f9d1c4b05b251f7088d85b8a","infoHashBuffer":{"type":"Buffer","data":[108,106,210,214,8,194,225,114,249,209,196,176,91,37,31,112,136,216,91,138]},"announce":[],"urlList":[]}}